<?xml version="1.0" standalone="no"?>
<!DOCTYPE svg PUBLIC "-//W3C//DTD SVG 1.1//EN" "http://www.w3.org/Graphics/SVG/1.1/DTD/svg11.dtd" >
<!--
2013-9-30: Created.
-->
<svg>
<metadata>
Created by iconfont
</metadata>
<defs>

<font id="player-icon" horiz-adv-x="1024" >
  <font-face
    font-family="player-icon"
    font-weight="500"
    font-stretch="normal"
    units-per-em="1024"
    ascent="896"
    descent="-128"
  />
    <missing-glyph />
    
    <glyph glyph-name="x" unicode="x" horiz-adv-x="1001"
d="M281 543q-27 -1 -53 -1h-83q-18 0 -36.5 -6t-32.5 -18.5t-23 -32t-9 -45.5v-76h912v41q0 16 -0.5 30t-0.5 18q0 13 -5 29t-17 29.5t-31.5 22.5t-49.5 9h-133v-97h-438v97zM955 310v-52q0 -23 0.5 -52t0.5 -58t-10.5 -47.5t-26 -30t-33 -16t-31.5 -4.5q-14 -1 -29.5 -0.5
t-29.5 0.5h-32l-45 128h-439l-44 -128h-29h-34q-20 0 -45 1q-25 0 -41 9.5t-25.5 23t-13.5 29.5t-4 30v167h911zM163 247q-12 0 -21 -8.5t-9 -21.5t9 -21.5t21 -8.5q13 0 22 8.5t9 21.5t-9 21.5t-22 8.5zM316 123q-8 -26 -14 -48q-5 -19 -10.5 -37t-7.5 -25t-3 -15t1 -14.5
t9.5 -10.5t21.5 -4h37h67h81h80h64h36q23 0 34 12t2 38q-5 13 -9.5 30.5t-9.5 34.5q-5 19 -11 39h-368zM336 498v228q0 11 2.5 23t10 21.5t20.5 15.5t34 6h188q31 0 51.5 -14.5t20.5 -52.5v-227h-327z" />
    

    
    <glyph glyph-name="search" unicode="&#58972;" d="M953.504-12.256l-152.608 163.296c61.856 74.496 95.872 167.36 95.872 265.12 0 229.344-186.624 415.968-416.032 415.968-229.344 0-415.968-186.592-415.968-415.968s186.624-415.968 416-415.968c60.096 0.032 118.048 12.576 172.224 37.248 16.096 7.328 23.2 26.304 15.872 42.368-7.328 16.128-26.4 23.264-42.368 15.872-45.856-20.864-94.88-31.456-145.76-31.488-194.08 0-351.968 157.888-351.968 351.968 0 194.048 157.888 351.968 351.968 351.968 194.112 0 352.032-157.888 352.032-351.968 0-91.36-34.848-177.92-98.08-243.744-12.256-12.736-11.84-32.992 0.864-45.248 0.96-0.928 2.208-1.28 3.296-2.08 0.864-1.28 1.312-2.752 2.4-3.904l165.504-177.088c6.272-6.752 14.816-10.144 23.36-10.144 7.84 0 15.68 2.848 21.856 8.64C964.864-45.408 965.568-25.152 953.504-12.256z"  horiz-adv-x="1024" />

    
    <glyph glyph-name="back" unicode="&#59001;" d="M706.14190459-101.45185185000003c-14.91308089 0-29.82616178 5.67007763-41.20515318 17.04906903L237.77795792 342.75601067c-22.75798282 22.71914667-22.75798282 59.61348741 0 82.37147022l427.15879349 427.19762963c22.75798282 22.75798282 59.61348741 22.75798282 82.37147022 0 22.75798282-22.71914667 22.75798282-59.61348741 0-82.37147022l-385.9536403-385.99247645 385.9536403-385.9536403c22.75798282-22.75798282 22.75798282-59.61348741 0-82.37147022C735.96806637-95.78177421999999 721.05498548-101.45185185000003 706.14190459-101.45185185000003z"  horiz-adv-x="1024" />

    
    <glyph glyph-name="more" unicode="&#59012;" d="M224 288c-52.928 0-96 43.072-96 96s43.072 96 96 96c52.928 0 96-43.072 96-96S276.928 288 224 288zM512 288c-52.928 0-96 43.072-96 96s43.072 96 96 96c52.928 0 96-43.072 96-96S564.928 288 512 288zM800 288c-52.928 0-96 43.072-96 96s43.072 96 96 96c52.928 0 96-43.072 96-96S852.928 288 800 288z"  horiz-adv-x="1024" />

    
    <glyph glyph-name="people" unicode="&#58927;" d="M911.958618-25.14851699999997l0 0.419556c0 3.176342-0.470741 6.238075-1.29249 9.155521C898.119868 79.05679899999996 852.710796 166.18927599999995 781.667851 231.04744600000004c-37.878245 34.58161-81.445289 61.295018-128.375057 79.304184 81.707266 49.52188 136.425745 139.291416 136.425745 241.60771 0 155.671479-126.652761 282.321994-282.331797 282.321994s-282.331797-126.649492-282.331797-282.321994c0-102.351086 54.757366-192.144158 136.50966-241.655805-46.878601-18.008142-90.397547-44.707225-128.240999-79.256088-70.372651-64.24521-115.573983-150.35131-128.616568-243.948011-1.222902-3.452635-1.938223-7.141654-1.982227-10.998495l0.388873-3.958148 0-0.423649c0-18.892279 15.371728-34.262338 34.263776-34.262338 18.759013 0 34.045803 15.152095 34.258659 33.863249l-0.388873 3.958148 0 0.423649c0 1.579985-0.145316 3.124154-0.353055 4.64888C194.459876 140.69871799999999 328.718167 262.00245800000005 489.933522 270.234957c5.778853-0.354064 11.587382-0.593518 17.454243-0.593518 5.878118 0 11.697904 0.239454 17.488014 0.595564 161.552037-8.231475 296.061049-129.998773 319.234791-290.830785l0.362266 0c-0.150432-1.228991-0.248674-2.474354-0.263001-3.740184l0.384779-3.913123 0-0.419556c0-18.678408 15.197758-33.875528 33.87695-33.875528 18.54718 0 33.661024 14.981203 33.871834 33.480532L911.958618-25.14851699999997zM291.348526 551.877475c0 119.078049 96.881487 215.957517 215.964535 215.957517 119.086117 0 215.969651-96.879468 215.969651-215.957517 0-112.452141-86.410579-205.059306-196.315208-215.025285-6.470637 0.306992-12.96174 0.471744-19.472288 0.471744-6.575018 0-13.128546-0.171915-19.662631-0.485047C377.84916 346.72300199999995 291.348526 439.365982 291.348526 551.877475z"  horiz-adv-x="1024" />

    
    <glyph glyph-name="info" unicode="&#59109;" d="M512-123.46709333000001C232.19768889-123.46709333000001 4.53290667 104.16128000000003 4.53290667 384 4.53290667 663.80231111 232.19768889 891.46709333 512 891.46709333c279.83872 0 507.46709333-227.62837333 507.46709333-507.46709333C1019.46709333 104.16128000000003 791.83872-123.46709333000001 512-123.46709333000001zM512 818.64931555C272.32028445 818.64931555 77.35068445 623.6797155500001 77.35068445 384c0-239.64330667 194.9696-434.64931555 434.64931555-434.64931555 239.64330667 0 434.64931555 194.9696 434.64931555 434.64931555C946.64931555 623.6797155500001 751.64330667 818.64931555 512 818.64931555zM512 620.6577777800001m-54.61333333 0a1.70666667 1.70666667 0 1 1 109.22666666 0 1.70666667 1.70666667 0 1 1-109.22666666 0ZM512 92.72888889000001c-20.09770667 0-36.40888889 16.27477333-36.40888889 36.40888889l0 327.68c0 20.09770667 16.31118222 36.40888889 36.40888889 36.40888889s36.40888889-16.31118222 36.40888889-36.40888889l0-327.68C548.40888889 109.00366222000002 532.09770667 92.72888889000001 512 92.72888889000001z"  horiz-adv-x="1024" />

    
    <glyph glyph-name="sort" unicode="&#59136;" d="M335.32207408 617.01688889l621.37837037 0c21.47638992 0 38.83614815 17.39859437 38.83614814 38.83614814s-17.35975822 38.83614815-38.83614814 38.83614815L335.32207408 694.68918518c-21.43755378 0-38.83614815-17.39859437-38.83614816-38.83614815S313.8845203 617.01688889 335.32207408 617.01688889zM956.70044445 422.83614815L335.32207408 422.83614815c-21.43755378 0-38.83614815-17.39859437-38.83614816-38.83614815s17.39859437-38.83614815 38.83614816-38.83614815l621.37837037 0c21.47638992 0 38.83614815 17.39859437 38.83614814 38.83614815S978.17683437 422.83614815 956.70044445 422.83614815zM956.70044445 150.98311110999998L335.32207408 150.98311110999998c-21.43755378 0-38.83614815-17.35975822-38.83614816-38.83614814s17.39859437-38.83614815 38.83614816-38.83614815l621.37837037 0c21.47638992 0 38.83614815 17.35975822 38.83614814 38.83614815S978.17683437 150.98311110999998 956.70044445 150.98311110999998zM102.30518519 655.85303703m-77.6722963 0a2.42725925 2.42725925 0 1 1 155.3445926 0 2.42725925 2.42725925 0 1 1-155.3445926 0ZM102.30518519 384m-77.6722963 0a2.42725925 2.42725925 0 1 1 155.3445926 0 2.42725925 2.42725925 0 1 1-155.3445926 0ZM102.30518519 112.14696297m-77.6722963 0a2.42725925 2.42725925 0 1 1 155.3445926 0 2.42725925 2.42725925 0 1 1-155.3445926 0Z"  horiz-adv-x="1024" />

    
    <glyph glyph-name="rank-fill" unicode="&#59169;" d="M222.02342717 673.97657283L56.32252839 673.97657283c-22.86672403 0-41.42522469-18.55850066-41.42522469-41.42522468l0-704.22881976c0-22.90814925 18.55850066-41.42522469 41.42522469-41.42522469l165.70089878 0c22.86672403 0 41.42522469 18.51707543 41.42522468 41.42522469L263.44865185 632.55134815C263.44865185 655.41807218 244.8901512 673.97657283 222.02342717 673.97657283zM594.85044939 425.42522469l-165.70089878 0c-22.86672403 0-41.42522469-18.55850066-41.42522469-41.42522469l0-455.67747161c0-22.90814925 18.55850066-41.42522469 41.42522469-41.42522469l165.70089878 0c22.90814925 0 41.42522469 18.51707543 41.42522469 41.42522469L636.27567408 384C636.27567408 406.86672403 617.75859863 425.42522469 594.85044939 425.42522469zM967.67747161 881.1026963l-165.70089878 0c-22.90814925 0-41.42522469-18.55850066-41.42522468-41.42522469l0-911.35494322c0-22.90814925 18.51707543-41.42522469 41.42522468-41.42522469l165.70089878 0c22.90814925 0 41.42522469 18.51707543 41.42522469 41.42522469L1009.1026963 839.67747161C1009.1026963 862.54419564 990.58562085 881.1026963 967.67747161 881.1026963z"  horiz-adv-x="1024" />

    
    <glyph glyph-name="play-fill" unicode="&#59215;" d="M817.088 411.04l-512 323.744C295.232 741.024 282.752 741.408 272.576 735.7760000000001 262.336 730.144 256 719.392 256 707.744l0-647.328c0-11.648 6.336-22.4 16.576-28.032 4.8-2.656 10.112-3.968 15.424-3.968 5.952 0 11.904 1.664 17.088 4.928l512 323.616C826.368 362.81600000000003 832 373.024 832 384 832 394.976 826.368 405.184 817.088 411.04z"  horiz-adv-x="1024" />

    
    <glyph glyph-name="unfavorite" unicode="&#58913;" d="M512-68.83555520000004c-4.55111147 0-11.37777813 2.2755552-15.92888853 4.55111147-4.55111147 2.2755552-4.55111147 2.2755552-386.8444448 339.05777813-59.1644448 56.88888853-93.29777813 134.25777813-93.29777814 213.90222187 0 81.92 31.85777813 157.01333333 91.02222187 216.17777813 59.1644448 59.1644448 125.1555552 88.74666667 193.42222187 88.74666667 68.26666667 0 138.80888853-29.58222187 211.62666666-88.74666667 72.81777813 59.1644448 143.36 88.74666667 211.62666667 88.74666667 68.26666667 0 134.25777813-29.58222187 193.42222187-88.74666667 59.1644448-56.88888853 91.02222187-134.25777813 91.02222186-216.17777813 0-79.6444448-31.85777813-157.01333333-91.02222186-213.90222187-386.8444448-339.05777813-386.8444448-339.05777813-395.94666667-341.33333333C518.82666667-68.83555520000004 516.55111147-68.83555520000004 512-68.83555520000004zM302.64888853 723.05777813c-50.06222187 0-97.84888853-22.7555552-145.6355552-68.26666666-45.51111147-45.51111147-70.54222187-104.6755552-70.54222186-166.1155552 0-61.44 25.03111147-120.6044448 70.54222186-163.84 232.10666667-204.8 323.12888853-284.4444448 357.26222187-314.02666667 34.13333333 29.58222187 125.1555552 109.22666667 359.53777813 314.02666667 43.2355552 43.2355552 68.26666667 100.1244448 68.26666667 163.84 0 61.44-25.03111147 120.6044448-70.54222187 166.1155552-47.78666667 45.51111147-95.57333333 68.26666667-145.6355552 68.26666666-56.88888853 0-120.6044448-29.58222187-188.87111146-91.02222186-13.65333333-11.37777813-31.85777813-11.37777813-45.51111147 0C420.97777813 693.4755552 359.53777813 723.05777813 302.64888853 723.05777813z"  horiz-adv-x="1024" />

    
    <glyph glyph-name="star" unicode="&#58976;" d="M334.70248 101.48153200000002l143.159514 66.311265c10.828626 5.059226 22.536272 7.568373 34.20094 7.568373 11.664667 0 23.372314-2.508123 34.20094-7.568373l143.159514-66.311265L669.982616 255.01020700000004c-3.052522 24.208355 4.891404 48.501644 21.657252 66.186422l106.283652 112.095008-153.529699 29.141714c-23.706935 4.473895-44.151569 19.23304-55.900148 40.264029l-76.43074 136.930649-76.43074-136.930649c-11.748578-21.030989-32.194236-35.789111-55.900148-40.264029l-153.528676-29.141714L332.485998 321.19662900000003c16.766872-17.684778 24.710798-41.978067 21.659299-66.186422L334.70248 101.48153200000002M788.600177-34.152589000000035L512.063957 93.99707000000001 235.527736-34.152589000000035l37.922704 299.406091L64.646857 485.429087l299.95049 56.94699L512.063957 806.578388l147.46661-264.202311 299.949466-56.94699L750.677473 265.253502 788.600177-34.152589000000035 788.600177-34.152589000000035 788.600177-34.152589000000035z"  horiz-adv-x="1024" />

    
    <glyph glyph-name="prevsong" unicode="&#59105;" d="M127.53056313 893.90651165c-15.74126933 0-28.47865742-12.73738809-28.47865742-28.47865743l0-962.85337941c0-15.74243328 12.73738809-28.47982137 28.47865742-28.47982137 15.74243328 0 28.47865742 12.73622414 28.47865742 28.47982137l0 460.49033671c0-16.37930325 9.87322254-30.7036251 24.863521-40.13208576l626.68064768-394.93936014c11.57076423-7.28615822 28.25744043-11.12483954 41.71669162-11.12483954 39.82704071 0 75.67684949 32.42794553 75.6768495 72.20026482L924.94693035 778.93353927c0 39.79909803-37.26908416 72.17115705-77.0658543 72.17115705-13.43480035 0-29.09107655-3.83751623-40.66184078-11.09689571L182.06847203 445.08124729c-14.99029845-9.40051797-26.05925149-23.75045461-26.05925148-40.10414308L156.00921941 865.42785422C156.00921941 881.16912355 143.27183246 893.90651165 127.53056313 893.90651165zM205.59771079 396.85614592L835.05985877 791.75475655c2.52884878 1.58460587 10.06649458 2.39146211 12.82121728 2.39146212 7.31293696 0 20.1073755-5.81216142 20.1073755-15.2126794l0-789.86474951c0-12.90504647-18.80103595-18.63570659-28.06183936-12.85032505L208.04505827 371.15782599c-6.39663673 4.06106112-8.3433381 10.34592597-8.34333809 12.84915996C199.70172018 386.56610645 199.20107293 392.85097131 205.59771079 396.85614592z"  horiz-adv-x="1024" />

    
    <glyph glyph-name="shuffleplay" unicode="&#58929;" d="M1065.495339 665.9051870000001L903.685589 504.068492C888.057004 488.439906 862.700972 488.439906 847.04544 504.068492 831.416855 519.697077 831.416855 545.053109 847.04544 560.708641L940.601386 654.23764 754.486491 654.23764C403.975047 654.23764 564.491397 34.48339499999997 53.894737 34.48339499999997L40.421818 34.48339499999997C18.110666 34.48339499999997 0.003063 52.59099800000001 0.003063 74.90215 0.003063 97.24024899999995 4.637747 115.32090600000004 26.9489 115.32090600000004L53.894737 115.32090600000004C483.76167 115.32090600000004 348.628299 735.07515 727.540655 735.07515 739.558498 735.07515 853.485495 735.07515 939.766065 735.07515L847.04544 827.7957739999999C831.416855 843.424359 831.416855 868.780392 847.04544 884.408977 862.700972 900.064508 888.057004 900.064508 903.685589 884.408977L1062.504351 725.590215C1071.638989 718.18011 1077.836532 707.347884 1077.836532 694.656395 1077.836532 683.87806 1073.282685 674.447017 1066.384551 667.225533 1066.00731 666.8213450000001 1065.899526 666.282429 1065.495339 665.9051870000001ZM53.894737 654.156802L26.9489 654.156802C4.637747 654.156802 0.003063 672.264404 0.003063 694.629449 0.003063 716.967548 18.110666 735.07515 40.421818 735.07515L53.894737 735.07515C226.590604 735.07515 322.41 664.0189780000001 387.295574 570.112738L339.278093 486.93094C281.290653 581.995852 200.480089 654.156802 53.894737 654.156802ZM521.378058 294.26820699999996C569.934456 193.24826499999995 629.888942 114.72809700000005 754.486491 114.72809700000005L940.601386 114.72809700000005 847.04544 208.39182600000004C831.416855 224.04735700000003 831.416855 249.430335 847.04544 265.05891999999994 862.700972 280.71445100000005 888.057004 280.71445100000005 903.685589 265.05891999999994L1065.495339 103.08749599999999C1065.899526 102.68330800000001 1066.034255 102.14439100000004 1066.411497 101.713258 1073.282685 94.51872000000003 1077.836532 85.06073100000003 1077.836532 74.28239599999995 1077.836532 61.56396099999995 1071.638989 50.704789000000005 1062.477405 43.29468399999996L903.685589-115.65880700000002C888.057004-131.3412840000001 862.700972-131.3412840000001 847.04544-115.65880700000002 831.416855-100.00327600000003 831.416855-74.647243 847.04544-58.99171200000001L939.766065 33.80974900000001C853.485495 33.80974900000001 739.558498 33.80974900000001 727.540655 33.80974900000001 593.134821 33.80974900000001 523.479833 111.97962199999995 470.288752 212.73010499999998 475.54319 217.58035600000005 480.231765 222.96952299999998 483.896399 229.30179499999997L521.378058 294.26820699999996Z"  horiz-adv-x="1078" />

    
    <glyph glyph-name="rank" unicode="&#58919;" d="M1002.624-85.26933299999996L21.354667-85.26933299999996C9.557333-85.26933299999996 0-94.82666700000004 0-106.62400000000002 0-118.44266700000003 9.557333-128 21.354667-128l981.269333 0C1014.464-128 1024-118.44266700000003 1024-106.62400000000002 1024-94.82666700000004 1014.464-85.26933299999996 1002.624-85.26933299999996zM757.290667-29.866667000000007l245.333333 0c11.84 0 21.376 9.557333 21.354667 21.376L1023.978667 334.93333299999995c0 11.818667-9.514667 21.376-21.376 21.376L757.290667 356.30933300000004c-11.84 0-21.354667-9.557333-21.354667-21.376l0-343.445333C735.936-20.309333000000038 745.450667-29.866667000000007 757.290667-29.866667000000007zM778.666667 313.578667l202.581333 0 0-300.714667L778.666667 12.864000000000033 778.666667 313.578667zM389.333333-29.866667000000007l245.312 0c11.861333 0 21.376 9.557333 21.376 21.376L656.021333 874.645333C656.021333 886.442667 646.506667 896 634.645333 896L389.333333 896c-11.797333 0-21.354667-9.557333-21.354667-21.354667l0-883.136C367.978667-20.309333000000038 377.536-29.866667000000007 389.333333-29.866667000000007zM410.709333 853.269333l202.581333 0 0-840.405333-202.581333 0L410.709333 853.269333zM21.354667-29.866667000000007l245.333333 0c11.797333 0 21.376 9.557333 21.333333 21.376L288.021333 531.2c0 11.776-9.578667 21.354667-21.354667 21.354667L21.354667 552.554667C9.557333 552.554667 0 542.997333 0 531.2l0-539.690667C0-20.309333000000038 9.557333-29.866667000000007 21.354667-29.866667000000007zM42.730667 509.824l202.581333 0 0-496.938667L42.730667 12.885332999999946 42.730667 509.824z"  horiz-adv-x="1024" />

    
    <glyph glyph-name="del-x" unicode="&#58906;" d="M512 275.456l253.3376-253.3376a76.6976 76.6976 0 1 1 108.544 108.544L620.6464 384l253.2352 253.3376a76.6976 76.6976 0 1 1-108.544 108.544L512 492.6464 258.6624 745.8815999999999a76.6976 76.6976 0 1 1-108.544-108.544L403.3536 384 150.1184 130.66240000000005a76.6976 76.6976 0 1 1 108.544-108.544L512 275.35360000000003z"  horiz-adv-x="1024" />

    
    <glyph glyph-name="play" unicode="&#58886;" d="M723.422886 381.45273599999996c0-10.189055-5.094527-15.283582-10.189055-20.378109l-285.293532-178.308458c-5.094527-5.094527-10.189055-5.094527-15.283583-5.094527-15.283582 0-25.472637 10.189055-25.472636 25.472637v361.711442c0 15.283582 10.189055 25.472637 25.472636 25.472637 5.094527 0 10.189055 0 15.283583-5.094527l285.293532-178.308458c5.094527-10.189055 10.189055-20.378109 10.189055-25.472637m295.482587 0c0 280.199005-229.253731 509.452736-509.452737 509.452737s-509.452736-229.253731-509.452736-509.452737 229.253731-509.452736 509.452736-509.452736 509.452736 229.253731 509.452737 509.452736z m-66.228856 0c0-244.537313-198.686567-448.318408-448.318408-448.318408s-448.318408 198.686567-448.318408 448.318408 198.686567 448.318408 448.318408 448.318408 448.318408-203.781095 448.318408-448.318408z"  horiz-adv-x="1024" />

    
    <glyph glyph-name="favorite" unicode="&#58880;" d="M977.59886293 622.7288768000001c-12.7359328 35.9221408-31.13907093 68.21277227-54.69749013 95.97466027-24.55170773 28.9298208-53.6310688 51.64012373-86.43362667 67.49673066-34.86881813 16.85644587-72.8823232 25.40418987-112.9861024 25.40418987-37.6009088 0-72.955456-6.7478176-105.0812672-20.05680107-25.83425173-10.70132693-49.57168107-25.61922133-70.55737173-44.3378112-13.89513387-12.3942848-24.75473173-24.8518784-32.87678187-35.53901546-8.12314133 10.68713707-18.981648 23.1436384-32.87787306 35.53901546-20.98569067 18.71858987-44.7242112 33.63648427-70.55737174 44.3378112-32.1258112 13.30789227-67.47926613 20.05680107-105.0812672 20.05680107-40.102688 0-78.11619307-8.54774507-112.9861024-25.40418987-32.80146667-15.85769813-61.88082667-38.56690987-86.4325344-67.49673066-23.5595104-27.7629792-41.96264853-60.05361067-54.69858133-95.97466027-12.7031872-35.83045227-19.1442848-73.52086613-19.1442848-112.02665067 0-35.81408 6.73144427-71.82790827 20.00659093-107.04164906 11.17068373-29.62949013 27.26415147-59.41616 47.8372448-88.53590614 36.88050133-52.20116907 80.85483413-92.38462933 109.95274987-118.9731264l2.88927147-2.6414944c23.70686613-21.65807147 75.26840107-60.66050027 129.85782933-101.95295146 35.2814144-26.68891733 71.76350827-54.285984 100.420448-77.02575894 37.28218347-29.58473707 47.78376-40.3493728 50.70686827-43.90884053 9.02365013-8.22137813 10.8213952-14.22586667 20.1070112-14.22586667 9.28452587 0 12.5973088 8.3720096 20.10592 14.22586667 2.92201707 3.5594688 13.42468587 14.32410347 50.70686826 43.90884053 28.65584853 22.73977387 65.1390336 50.3368416 100.4193568 77.02575894 54.58942933 41.2924512 106.1509632 80.29488107 129.8501888 101.94640213l2.80958934 2.5672704c29.10664853 26.58413013 73.09408 66.75995093 109.99531946 118.97749227 20.58400853 29.12738773 36.68839253 58.9249728 47.867808 88.56537813 13.28497067 35.22902187 20.0207808 71.25922347 20.0207808 107.08967573C996.74423893 549.20801067 990.30314133 586.89842453 977.59886293 622.7288768000001z"  horiz-adv-x="1024" />

    
    <glyph glyph-name="loopplay" unicode="&#59099;" d="M73.44128 228.79232000000002a44.45184 44.45184 0 0 0-12.11904-1.64352c-20.71552 0-38.18496 13.88544-43.6224 32.86016-9.3696 32.57344-14.70976 69.63712-14.70976 107.93984v0.42496c0 107.43808 41.80992 208.45568 117.79584 284.44672C193.1776 725.58592 293.38624 770.62144 404.11648 770.62144h423.24992V851.29728c0 25.70752 17.67936 35.36896 39.3728 21.35552l194.36032-125.48096c21.63712-14.00832 21.41184-36.5568-0.50688-50.11456L867.2 577.28c-21.92384-13.61408-39.89504-3.67616-39.89504 22.14912V679.77216h-422.0416c-172.10368-0.18944-311.54688-139.74528-311.54688-311.86944 0-29.62432 4.12672-58.28096 11.84256-85.4272 0.512-1.42848 1.11104-5.60128 1.11104-9.91232a45.37856 45.37856 0 0 0-32.90624-43.62752l-0.32256-0.14336z m1044.89472 282.15808a403.70176 403.70176 0 0 0 14.62784-107.91424c0-107.40224-41.80992-208.42496-117.80096-284.416-72.3968-72.76544-172.5952-117.80096-283.32544-117.80096H308.58752v-80.78848c0-25.70752-17.68448-35.36896-39.37792-21.42208l-194.29888 125.54752c-21.63712 14.00832-21.47328 36.5568 0.45056 50.10944l193.45408 119.77728c21.86752 13.6192 39.8336 3.67616 39.8336-22.144v-80.33792h422.04672c172.09344 0.18432 311.53664 139.74528 311.53664 311.87456 0 29.6192-4.1216 58.27584-11.84256 85.42208-0.3584 1.17248-0.87552 5.03808-0.87552 9.03168a45.36832 45.36832 0 0 0 88.7296 13.38368l0.09216-0.32256z"  horiz-adv-x="1136" />

    
    <glyph glyph-name="singleplay" unicode="&#58934;" d="M124.470738 98.91564400000004C44.453835 179.31910100000005 0 284.84864000000005 0 396.176505c0 104.756428 43.680725 201.3952 129.495954 287.596983 80.016903 80.403458 180.90778 122.924517 291.462534 122.924517h459.227442V855.790501C880.18593 880.530027 902.21957 895.99223 922.320434 895.99223a37.031977 37.031977 0 0 0 21.26053-6.184881l184.000221-91.227c13.142873-8.117657 20.100864-19.714309 20.100864-32.470628s-7.344547-24.35297-19.714309-32.084072L939.328858 631.975107a32.122728 32.122728 0 0 0-17.008424-4.638661c-22.420195 0-42.521059 22.80675-42.521059 47.546275V733.2525390000001H416.706382c-175.496009 0-341.714696-163.899356-341.714695-336.689479 0-83.882454 40.201729-172.017013 110.554754-241.210374l4.638661-4.638661-58.369818-59.142928zM427.14337-127.99219200000005a37.031977 37.031977 0 0 0-21.26053 6.184882l-184.000221 91.227c-13.142873 8.117657-20.100864 19.714309-20.100864 32.470627s7.344547 24.35297 19.714309 32.084072l189.025437 102.050543a32.431972 32.431972 0 0 0 17.008424 5.025216c22.420195 0 42.521059-22.80675 42.521059-47.546276v-58.369817h463.092993c175.496009 0 341.714696 163.512801 341.714695 336.689479 0 78.857237-36.336178 162.739691-99.731212 230.000276l-5.411771 5.798326 6.957992 4.252106 65.714364 39.428619 3.478996-4.252106a413.88453 413.88453 0 0 0 103.983318-275.613776c0-104.756428-43.680725-201.781755-129.495954-287.596984-80.016903-80.403458-180.90778-122.924517-291.462534-122.924517H469.277874v-49.479051c0-23.966415-22.03364-39.428619-42.134504-39.428619zM660.236086 163.08378800000003v291.462534a281.760002 281.760002 0 0 0-93.932886-51.798381l-8.504211-2.705886v85.815229l4.638661 1.546221c20.100864 6.571436 42.134504 19.327754 65.714364 37.495843s39.428619 39.428619 47.932831 63.395034l1.54622 4.252106h75.378242v-429.076145h-92.773221z"  horiz-adv-x="1349" />

    
    <glyph glyph-name="sq" unicode="&#58881;" d="M398.02832213 412.25511253c-0.62406201 0.04890055-1.17477376 0.3457957-1.79883576 0.3457957l-103.29043514 0c-22.18214969 0-40.19262919 17.83816419-40.19262918 39.72458268s18.01048064 39.70013298 40.19262918 39.70013298c0.82432114 0 1.52406243 0.39469625 2.29831794 0.46804651 0.79987029-0.07335026 1.4972837-0.46804651 2.32276878-0.46804651l153.72536832 0c13.8131968 0 24.97878585 11.05265323 24.97878586 24.67490475 0 13.61875968-11.16558905 24.67257685-24.97878586 24.67257685L297.55897287 541.37310549c-0.82548509 0-1.52406243-0.37024541-2.32276878-0.4435968-0.77542059 0.07335026-1.47399794 0.4435968-2.29831794 0.4435968-49.71074105 0-90.15252992-39.94696363-90.15252992-89.04644949 0-45.54605795 34.92070173-82.80350037 79.63545259-88.01022749 1.77438606-0.39469625 3.39741241-1.0618368 5.27192747-1.0618368l106.76236288 0c22.15769885 0 40.19262919-17.81371449 40.19262918-39.70013297 0-21.88408946-18.03493035-39.70013298-40.19262918-39.70013298L227.76646997 283.85432576000005c-13.81436075 0-24.98111488-11.05265323-24.98111488-24.67257685 0-13.64437333 11.16558905-24.67490475 24.98111488-24.67490475l171.63571997 0c1.77205703 0 3.32173426 0.64269085 4.97037539 0.98732259 45.01397504 4.95873251 80.23506489 42.3139749 80.23506489 88.05912804C484.60763022 371.44657123 446.03802851 410.35731171 398.02832213 412.25511253zM809.88605326 266.68097308999995c8.41668949 11.73958656 13.40569373 25.93700067 13.40569373 41.29172366L823.29174699 469.58616462c0 40.16817949-33.69702741 72.71255495-75.2891392 72.71255495L598.94839069 542.29871957c-41.56766208 0-75.2891392-32.54437547-75.2891392-72.71255495l0-161.61230279c0-40.14372864 33.72264221-72.71255495 75.2891392-72.71255495l149.0542171 0c6.99159211 0 13.62690958 1.21668835 20.04799602 2.93868089l15.43855217-15.13467108c4.84579555-4.78641721 11.21681863-7.18020722 17.58551268-7.18020722 6.41992249 0 12.86429582 2.44269056 17.73454222 7.30362312 9.71720704 9.67179947 9.66830649 25.29081685-0.14902955 34.88810098L809.88605326 266.68097308999995zM773.33184626 307.97386183000003c0-1.58693376-0.65316978-2.97826645-0.98266453-4.47904313l-27.32833338 26.80090738c-9.74282069 9.57399837-25.60517689 9.52393387-35.32238278-0.1478656-9.71604195-9.67179947-9.66714141-25.29081685 0.15019349-34.88810098l10.86403697-10.65097102L598.94839069 284.60878848000004c-13.96339029 0-25.32923847 10.48564167-25.32923848 23.36507335L573.61915107 469.58616462c0 12.87943168 11.36584818 23.36507335 25.32923848 23.36507335l149.0542171 0c13.96339029 0 25.32923847-10.48564167 25.32923847-23.36507335L773.33184626 307.97386183000003zM914.7378085 679.24077454L109.25986247 679.24077454c-59.39534734 0-107.22109554-48.18202169-107.22109554-107.61695573l0-375.24647367c0-59.29638229 48.00388551-107.61695573 107.22109554-107.61695573l805.47910998 0c59.39767637 0 107.22225949 48.18202169 107.22225948 107.61695573L1021.96123307 571.62381881C1021.96123307 630.91903715 973.95501966 679.24077454 914.7378085 679.24077454zM968.28140999 196.37734514c0-29.74075335-24.01940707-53.93713266-53.54243641-53.93713266L109.25986247 142.44021248c-29.52302933 0-53.54127246 24.19637931-53.54127246 53.93713266L55.71859001 571.62381881c0 29.74075335 24.01707805 53.93713266 53.54127246 53.93713266l805.47910998 0c29.52302933 0 53.54243641-24.19637931 53.5424364-53.93713266L968.28140999 196.37734514z"  horiz-adv-x="1024" />

    
    <glyph glyph-name="del-trash" unicode="&#58987;" d="M778.48713427 746.60011152H246.96981288c-48.93446658 0-88.58622023-39.64855859-88.58622022-88.58302518v-29.52767505h708.68763179V658.01708634c0.00106501 48.93446658-39.64962362 88.58302518-88.58515521 88.58302518m-154.73673251 59.0553501l13.03371279-93.1966911H388.67389761l13.03264778 93.1966911h222.04385636m7.09303213 59.05535012H394.61670833c-24.36765393 0-47.03340617-19.72416744-50.43614456-43.88840257L326.90700698 697.26306744c-3.37398285-24.13334958 13.81330733-43.85858202 38.18096126-43.85858203h295.28527074c24.36658891 0 41.55387909 19.72310241 38.1522057 43.88733756l-17.27462177 123.56040675c-3.37611289 24.13547962-26.04080009 43.85858202-50.40738903 43.85858202m162.40807042-295.27462053H232.20650785c-32.47032488 0-56.66438058-26.47106812-53.72279577-58.8242408l48.38917641-531.95504456c2.91176425-32.35423771 31.92183965-58.82424082 64.39109952-58.8242408h442.93110116c32.46925985 0 61.47933526 26.47213314 64.39109952 58.8242408l48.38811138 531.95610956c2.94051978 32.35210767-21.25353592 58.82317578-53.72279577 58.8231758M394.61351325 37.94123523999997h-88.58622022l-29.52874008 413.38425575H394.61351325V37.94123523999997z m177.17244048 0H453.67205843V451.32549099h118.11496032V37.94123523999997z m147.64263536 0h-88.58622024V451.32549099H748.95626415L719.42965412 37.94123523999997z"  horiz-adv-x="1024" />

    
    <glyph glyph-name="album" unicode="&#59643;" d="M512 896c282.770286 0 512-229.229714 512-512s-229.229714-512-512-512S0 101.22971399999994 0 384 229.229714 896 512 896z m0-952.149333c243.078095 0 440.149333 197.071238 440.149333 440.149333S755.078095 824.149333 512 824.149333 71.850667 627.0780950000001 71.850667 384 268.921905-56.149332999999956 512-56.149332999999956zM646.168381 700.9523810000001c49.737143-14.140952 96.694857-40.667429 135.875048-79.823238a312.636952 312.636952 0 0 0 79.847619-135.899429l-61.025524-61.001143a241.127619 241.127619 0 0 1-69.583238 146.115048A241.127619 241.127619 0 0 1 585.142857 639.9268569999999L646.168381 700.9523810000001zM390.095238 384a121.904762 121.904762 0 1 0 243.809524 0 121.904762 121.904762 0 0 0-243.809524 0z m60.65981 0a61.244952 61.244952 0 1 1 122.489904 0 61.244952 61.244952 0 0 1-122.489904 0z"  horiz-adv-x="1024" />

    
    <glyph glyph-name="del-close" unicode="&#58882;" d="M512 864C246.4 864 32 649.6 32 384s214.4-480 480-480 480 214.4 480 480S777.6 864 512 864m201.6-681.6c-12.8-12.8-35.2-12.8-48 0L512 336 358.4 182.39999999999998c-12.8-12.8-35.2-12.8-48 0-12.8 12.8-12.8 35.2 0 48L464 384 310.4 537.6c-12.8 12.8-12.8 35.2 0 48 12.8 12.8 35.2 12.8 48 0L512 432l153.6 153.6c12.8 12.8 35.2 12.8 48 0 12.8-12.8 12.8-35.2 0-48L560 384l153.6-153.6c16-12.8 16-35.2 0-48m0 0z"  horiz-adv-x="1024" />

    
    <glyph glyph-name="pause" unicode="&#59130;" d="M512 826.181818c244.363636 0 442.181818-197.818182 442.181818-442.181818s-197.818182-442.181818-442.181818-442.181818S69.818182 139.63636399999996 69.818182 384 267.636364 826.181818 512 826.181818m0 69.818182C228.072727 896 0 667.927273 0 384s228.072727-512 512-512 512 228.072727 512 512S795.927273 896 512 896zM411.927273 209.45454500000005c-20.945455 0-37.236364 16.290909-37.236364 37.236364V521.3090910000001c0 20.945455 16.290909 37.236364 37.236364 37.236364 20.945455 0 37.236364-16.290909 37.236363-37.236364v-274.618182c0-20.945455-16.290909-37.236364-37.236363-37.236364zM621.381818 209.45454500000005c-20.945455 0-37.236364 16.290909-37.236363 37.236364V521.3090910000001c0 20.945455 16.290909 37.236364 37.236363 37.236364 20.945455 0 37.236364-16.290909 37.236364-37.236364v-274.618182c0-20.945455-16.290909-37.236364-37.236364-37.236364z"  horiz-adv-x="1024" />

    
    <glyph glyph-name="headset" unicode="&#59087;" d="M1030.49900829 122.15586474999998h-103.13325568v240.00778126c0 227.46832441-185.06586339 412.53418781-412.53418667 412.5341878S102.29737813 589.6308064699999 102.29737813 362.16364601V122.15702868999995h-103.13325568V362.16364601c0 284.32201614 231.34542734 515.66744349 515.66744349 515.66744348s515.66744349-231.34542734 515.66744235-515.66744348v-240.00778126zM256.99726222-50.837423220000005c-56.72329102 0-103.13325568 46.40996466-103.13325568 103.13325568V258.56350777c0 56.72329102 46.40996466 103.13325568 103.13325568 103.13325568s103.13325568-46.40996466 103.13325568-103.13325568v-206.26767531c0-56.72329102-46.40996466-103.13325568-103.13325568-103.13325568zM759.77363001-50.837423220000005c-56.72329102 0-103.13325568 46.40996466-103.13325568 103.13325568V258.56350777c0 56.72329102 46.40996466 103.13325568 103.13325568 103.13325568s103.13325568-46.40996466 103.13325568-103.13325568v-206.26767531c0-56.72329102-46.40996466-103.13325568-103.13325568-103.13325568z"  horiz-adv-x="1024" />

    
    <glyph glyph-name="volume" unicode="&#58952;" d="M475.4-18.700000000000045c-21.9 0-43 6.4-61.1 18.6L212.4 123.20000000000005c-2.1 1.3-4.5 2-7 2h-95.6C49.3 125.20000000000005 0.1 174.39999999999998 0.1 234.89999999999998V527.5c0 60.5 49.2 109.7 109.7 109.7h95.1c2.6 0 5.1 0.7 7.2 2.1L414 767.9c24.2 16.4 53.3 22.4 82 16.9 28.9-5.5 53.9-22 70.4-46.4 12.3-18.2 18.7-39.7 18.7-62.3v-585c0-60.6-49.2-109.8-109.7-109.8zM109.7 564.1c-20.2 0-36.6-16.4-36.6-36.6v-292.6c0-20.2 16.4-36.6 36.6-36.6h95.6c15.9 0 31.5-4.4 45.1-12.7L454 61.39999999999998l0.8-0.5c6.1-4.2 13.3-6.4 20.7-6.4 20.2 0 36.6 16.4 36.6 36.6V676c0 8-2.2 15.4-6.2 21.4-5.5 8.1-13.8 13.6-23.5 15.5-9.6 1.8-19.4-0.2-27.5-5.8l-1-0.7-202.4-128.8c-13.9-8.9-30-13.5-46.5-13.5h-95.3zM658.3 128c-13.1 0-25.8 7.1-32.3 19.4-9.5 17.8-2.7 40 15.2 49.4 69.4 37 112.6 108.7 112.6 187.3 0 78.5-43.1 150.2-112.4 187.1-17.8 9.5-24.6 31.6-15.1 49.5 9.5 17.8 31.6 24.6 49.5 15.1 93.2-49.7 151.1-146.2 151.1-251.7 0-105.7-58-202.2-151.5-251.8-5.4-2.9-11.3-4.3-17.1-4.3zM804.9 18.299999999999955c-11.1 0-22 5-29.2 14.5-12.2 16.1-9 39 7.1 51.2 45.4 34.3 83 79.2 108.7 129.7 27 53 40.6 110.2 40.6 170.1 0 60-13.7 117.3-40.7 170.3-25.8 50.6-63.4 95.5-108.9 129.8-16.1 12.2-19.3 35.1-7.1 51.3 12.2 16.1 35.1 19.3 51.2 7.2 54.3-41 99.3-94.5 130-155 32.3-63.4 48.7-131.9 48.7-203.5 0-71.5-16.3-139.9-48.6-203.3-30.7-60.4-75.6-114-129.8-154.9-6.6-5-14.3-7.4-22-7.4z"  horiz-adv-x="1024" />

    
    <glyph glyph-name="front" unicode="&#59644;" d="M317.85809541 869.45185185c14.91308089 0 29.82616178-5.67007763 41.20515318-17.04906903L786.22204208 425.24398933c22.75798282-22.71914666 22.75798282-59.61348741 0-82.37147022l-427.15879349-427.19762963c-22.75798282-22.75798282-59.61348741-22.75798282-82.37147022 0-22.75798282 22.71914666-22.75798282 59.61348741 0 82.37147021l385.9536403 385.99247646-385.9536403 385.9536403c-22.75798282 22.75798282-22.75798282 59.61348741-1e-8 82.37147022C288.03193363 863.78177422 302.94501452 869.45185184 317.85809541 869.45185185z"  horiz-adv-x="1024" />

    
    <glyph glyph-name="playlist" unicode="&#58902;" d="M473.761684 769.401263H1131.789474v-75.183158H473.761684v75.183158zM0 393.431579h131.610947v-125.332211H0v125.305264z m0-375.969684h131.610947v-125.332211H0v125.305263z m323.368421 0h808.421053v-75.210106H323.368421v75.183158z m0 375.969684h808.421053v-75.183158H323.368421v75.183158zM6.656 540.7797889999999L6.117053 694.164211l1.589894 154.246736c0 9.377684 0.592842 17.596632 3.045053 20.345264 5.928421 6.602105 18.054737 5.874526 24.899368 0l209.327158-163.247158c3.664842-3.098947 5.227789-7.275789 4.985263-11.344842a13.689263 13.689263 0 0 0-4.985263-11.344843l-209.327158-163.247157c-6.871579-5.874526-18.863158-6.521263-24.872421 0-2.802526 3.018105-4.122947 8.299789-4.122947 21.180631z"  horiz-adv-x="1131" />

    
    <glyph glyph-name="nextsong" unicode="&#59645;" d="M896.46943687-125.90651164999997c15.74126933 0 28.47865742 12.73738809 28.47865742 28.47865743l0 962.85337941c0 15.74243328-12.73738809 28.47982137-28.47865742 28.47982138-15.74243328 0-28.47865742-12.73622414-28.47865742-28.47982138l0-460.49033671c0 16.37930326-9.87322255 30.7036251-24.863521 40.13208576l-626.68064768 394.93936014c-11.57076423 7.28615822-28.25744043 11.12483954-41.71669162 11.12483954-39.8270407 0-75.67684948-32.42794553-75.6768495-72.20026482L99.05306965-10.933539269999983c0-39.79909803 37.26908416-72.17115705 77.0658543-72.17115705 13.43480035 0 29.09107655 3.83751623 40.66184078 11.09689571L841.93152798 322.91875271000004c14.99029845 9.40051797 26.05925149 23.7504546 26.05925147 40.10414308L867.99078059-97.42785421999997C867.99078059-113.16912355 880.72816754-125.90651164999997 896.46943687-125.90651164999997zM818.40228921 371.14385408L188.94014123-23.754756550000025c-2.52884878-1.58460587-10.06649458-2.3914621-12.82121728-2.39146213-7.31293696 0-20.1073755 5.81216142-20.10737549 15.21267941l-1e-8 789.86474951c0 12.90504647 18.80103595 18.63570659 28.06183936 12.85032505L815.95494173 396.84217401c6.39663673-4.06106113 8.3433381-10.34592597 8.34333809-12.84915997C824.29827982 381.43389355 824.79892707 375.14902869 818.40228921 371.14385408z"  horiz-adv-x="1024" />

    
    <glyph glyph-name="hide" unicode="&#59646;" d="M997.45185185 578.14190459c0-14.9130809-5.67007763-29.82616178-17.04906904-41.20515318L553.24398933 109.77795791999995c-22.71914666-22.75798282-59.61348741-22.75798282-82.37147022-1e-8l-427.19762962 427.1587935c-22.75798282 22.75798282-22.75798282 59.61348741-1e-8 82.37147022 22.71914666 22.75798282 59.61348741 22.75798282 82.37147021 0l385.99247646-385.9536403 385.9536403 385.9536403c22.75798282 22.75798282 59.61348741 22.75798282 82.37147021 1e-8C991.78177422 607.96806637 997.45185184 593.05498548 997.45185185 578.14190459z"  horiz-adv-x="1024" />

    
    <glyph glyph-name="show" unicode="&#59647;" d="M26.54814815 189.85809541000003c0 14.9130809 5.67007763 29.82616178 17.04906904 41.20515318L470.75601067 658.2220420799999c22.71914666 22.75798282 59.61348741 22.75798282 82.37147022 1e-8l427.19762962-427.1587935c22.75798282-22.75798282 22.75798282-59.61348741 1e-8-82.37147022-22.71914666-22.75798282-59.61348741-22.75798282-82.37147021 0l-385.99247646 385.9536403-385.9536403-385.9536403c-22.75798282-22.75798282-59.61348741-22.75798282-82.37147021-1e-8C32.21822578 160.03193363000003 26.54814816 174.94501451999997 26.54814815 189.85809541000003z"  horiz-adv-x="1024" />

    


  </font>
</defs>
</svg>
